<?xml version="1.0" encoding="utf-8"?>
<!-- Generator: Adobe Illustrator 27.8.0, SVG Export Plug-In . SVG Version: 6.00 Build 0)  -->
<svg version="1.1" id="Calque_1" xmlns="http://www.w3.org/2000/svg" xmlns:xlink="http://www.w3.org/1999/xlink" x="0px" y="0px"
	 viewBox="0 0 1028.3 1122" style="enable-background:new 0 0 1028.3 1122;" xml:space="preserve">
<style type="text/css">
	.st0{fill:#F2F2F2;}
</style>
<g>
	<path class="st0" d="M514.2,586.7l335-236.5c-1.8-0.4-3.4-0.9-5.3-0.9H184.5c-1.8,0-3.4,0.6-5.3,0.9L514.2,586.7z M873.8,374.7
		c0-2.7-0.9-5.1-1.8-7.5L634.5,534.8l237.9,201.5c0.6-2,1.5-4,1.5-6.2V374.7z M156.3,367.1c-0.9,2.4-1.8,4.9-1.8,7.7v355.5
		c0,2.2,0.9,4.1,1.5,6.2l237.9-201.6L156.3,367.1z"/>
	<path class="st0" d="M617.5,555.6l-93.2,65.7c-2.9,2.2-6.6,3.1-10.2,3.1s-7.2-1-10.2-3.1l-93.1-65.7L156,771.4
		c2.5,0.6,5,1.3,7.7,1.3h700.8c2.8,0,5.3-0.7,7.8-1.3L617.5,555.6L617.5,555.6z"/>
</g>
</svg>
