<?xml version="1.0" encoding="utf-8"?>
<!-- Generator: Adobe Illustrator 27.8.0, SVG Export Plug-In . SVG Version: 6.00 Build 0)  -->
<svg version="1.1" id="_x31_" xmlns="http://www.w3.org/2000/svg" xmlns:xlink="http://www.w3.org/1999/xlink" x="0px" y="0px"
	 viewBox="0 0 1028.3 1122" style="enable-background:new 0 0 1028.3 1122;" xml:space="preserve">
<style type="text/css">
	.st0{fill:#F2F2F2;}
</style>
<path class="st0" d="M874.6,347c0-2.7,0-5.3-0.1-7.9c-0.5-16.2-2.5-31.1-1.5-40.9c0,0,0-0.2,0-0.5l0,0c0-0.1,0-0.3,0-0.4
	c0-0.1,0-0.1,0-0.1c0-0.1,0-0.2,0-0.4c0-0.1,0-0.2,0-0.3c0-0.1,0-0.2,0-0.4s0-0.3,0-0.4c0-0.1,0-0.2,0-0.3c-0.1-1-0.1-2.2-0.3-3.6
	c0-0.1,0-0.1,0-0.2c-0.1-0.4-0.1-0.6-0.1-1c0-0.1,0-0.2-0.1-0.3c-0.1-0.4-0.1-0.7-0.1-1.1c0-0.1,0-0.2-0.1-0.4
	c-0.1-0.4-0.1-0.8-0.2-1.1c0-0.1,0-0.2-0.1-0.3c-0.1-0.4-0.1-0.8-0.2-1.3c0-0.1,0-0.1,0-0.1c-2.2-11.6-8.3-29.4-25.3-44.3
	c-2-1.8-3.6-3.4-4.7-4.8l-45.6-40.8l-18.9-15c-22.6-19.9-56.9-17.6-76.6,5l-95.3,109c-19.8,22.6-17.5,56.9,5.1,76.6l82.2,71.8
	c-31.5,62.3-65.4,120-123.8,186.7c-50.9,58.2-93.8,93-142.7,127.7l-86.9-76c-22.6-19.8-56.9-17.5-76.6,5.1l-95.3,109
	c-19.8,22.6-17.5,56.9,5.1,76.6l59.2,51.8l6.7,5.8c17.6,13.4,34.3,19.3,46.8,21.8c0.4,0.1,0.7,0.1,1.1,0.2c1.3,0.3,2.5,0.5,3.7,0.6
	c0.9,0.1,1.8,0.3,2.7,0.4c1.3,0.1,2.5,0.3,3.6,0.4c1.8,0.1,3.4,0.2,4.7,0.2c0.9,0,1.8,0,2.5,0c0.4,0,0.7,0,1,0
	c1.5-0.1,2.4-0.1,2.5-0.1s0.1,0,0.2-0.1c0.7-0.1,1.5-0.2,2.3-0.4c0.1,0,0.2,0,0.4-0.1c1.3-0.1,2.8-0.2,4.3-0.3c0.1,0,0.1,0,0.3,0
	c7-0.3,15.8,0.2,24.7,0.2c0.7,0,1.4,0,2.1,0c9-0.1,18.4-0.8,26.4-3.4c4.5-1.4,9-2.9,13.7-4.5c1.5-0.5,3.1-1.1,4.6-1.6
	c69.8-24.3,163-70.4,268.2-181c9.7-10.2,19.6-21,29.5-32.3c25.8-29.5,48.1-58.2,67.4-85.9c1.5-2.1,2.9-4.3,4.4-6.4
	c4.9-7.2,9.6-14.3,14.1-21.4c8.1-12.5,15.5-24.9,22.4-37c1.8-3.2,3.6-6.3,5.3-9.4c1.1-2,2.2-4,3.2-6c3.7-6.9,7.3-13.7,10.7-20.4
	c1.9-3.8,3.8-7.6,5.6-11.4c3.2-6.7,6.2-13.2,9.2-19.8c0.8-1.8,1.6-3.7,2.5-5.5c1.6-3.6,3.2-7.3,4.6-10.9c3.8-9,7.2-17.8,10.4-26.4
	c0.6-1.8,1.3-3.4,1.9-5.1c12.4-34.1,20.7-65.1,27-92.3C873.9,364.6,874.5,355.7,874.6,347L874.6,347z"/>
</svg>
